HIERARCHY
ROOT Hips
{
	OFFSET 0.000000 0.000000 0.000000
	CHANNELS 6 Xposition Yposition Zposition Zrotation Yrotation Xrotation 
	JOINT LHipJoint
	{
		OFFSET 0.000000 0.000000 0.000000
		CHANNELS 3 Zrotation Yrotation Xrotation
		JOINT LeftUpLeg
		{
			OFFSET 1.363060 -1.794630 0.839290
			CHANNELS 3 Zrotation Yrotation Xrotation
			JOINT LeftLeg
			{
				OFFSET 2.448110 -6.726130 0.000000
				CHANNELS 3 Zrotation Yrotation Xrotation
				JOINT LeftFoot
				{
					OFFSET 2.562200 -7.039590 0.000000
					CHANNELS 3 Zrotation Yrotation Xrotation
					JOINT LeftToeBase
					{
						OFFSET 0.157640 -0.433110 2.322550
						CHANNELS 3 Zrotation Yrotation Xrotation
						End Site
						{
							OFFSET 0.000000 0.000000 0.000000
						}
					}
				}
			}
		}
	}
	JOINT RHipJoint
	{
		OFFSET 0.000000 0.000000 0.000000
		CHANNELS 3 Zrotation Yrotation Xrotation
		JOINT RightUpLeg
		{
			OFFSET -1.305520 -1.794630 0.839290
			CHANNELS 3 Zrotation Yrotation Xrotation
			JOINT RightLeg
			{
				OFFSET -2.542530 -6.985550 0.000000
				CHANNELS 3 Zrotation Yrotation Xrotation
				JOINT RightFoot
				{
					OFFSET -2.568260 -7.056230 0.000000
					CHANNELS 3 Zrotation Yrotation Xrotation
					JOINT RightToeBase
					{
						OFFSET -0.164730 -0.452590 2.363150
						CHANNELS 3 Zrotation Yrotation Xrotation
						End Site
						{
							OFFSET 0.000000 0.000000 0.000000
						}
					}
				}
			}
		}
	}
}
MOTION
Frames: 17
Frame Time: 0.008333
9.693002 16.060486 1.559844 26.988737 -83.602743 -1.987996 -11.121617 2.364324 -2.533841 -6.889284 2.539850 -10.015231 -1.683561 1.720765 34.704043 0.857306 4.283432 -9.082069 -0.231500 0.000000 -73.855600 8.630576 1.780405 1.805045 6.337893 0.502456 -58.950414 2.475766 -1.256654 17.281560 -0.758997 -5.040147 13.266380 -2.928900 -0.000000 -64.656900
9.510292 16.079495 1.536835 23.165446 -84.129916 2.285831 -11.361079 2.353474 -2.627492 -6.228795 3.380931 -12.294593 -1.388756 2.017142 38.130671 0.921391 5.077198 -6.793265 -0.032900 0.000000 -72.787900 8.521965 1.604261 1.873423 7.182019 1.217794 -59.456129 2.529083 -1.389899 18.495345 -0.731075 -4.937269 13.019390 -2.882100 -0.000000 -63.648400
9.332594 16.101595 1.513651 19.023353 -84.654381 6.919589 -11.596990 2.298185 -2.718951 -5.670155 4.133672 -14.700580 -1.103399 2.302094 41.610315 1.030119 6.001705 -4.714922 0.187600 0.000000 -69.330300 8.394585 1.435265 1.945184 8.023355 1.943783 -59.844966 2.598696 -1.479399 19.466749 -0.708618 -4.854945 12.505884 -2.830100 0.000000 -62.785200
9.160069 16.126237 1.489525 14.926578 -85.137518 11.537685 -11.820776 2.197068 -2.807632 -5.257576 4.765099 -17.186177 -0.841679 2.572813 45.083005 1.173149 7.027620 -3.044060 0.417900 -0.000000 -63.499101 8.250211 1.273700 2.015845 8.814827 2.631345 -60.125500 2.680281 -1.531382 20.221127 -0.689176 -4.767122 11.773534 -2.763200 -0.000000 -62.032600
8.992498 16.152884 1.464559 10.964668 -85.551095 16.056324 -12.030889 2.050142 -2.890164 -4.981295 5.272403 -19.763017 -0.610877 2.831963 48.518539 1.333260 8.094078 -1.945799 0.630300 0.000000 -55.704000 8.088704 1.113291 2.093360 9.540391 3.271677 -60.316863 2.773191 -1.546502 20.745929 -0.675826 -4.689531 10.906571 -2.693000 -0.000000 -61.373601
8.829593 16.181178 1.438488 7.408729 -85.870253 20.206284 -12.216979 1.862107 -2.962950 -4.844378 5.642679 -22.424170 -0.408886 3.079892 51.861286 1.497532 9.162442 -1.477752 0.795100 -0.000000 -46.824200 7.919986 0.954183 2.179751 10.180189 3.841383 -60.445068 2.875598 -1.530286 21.051232 -0.667645 -4.614629 9.980413 -2.620500 0.000000 -60.783001
8.670929 16.210897 1.411100 4.556358 -86.085798 23.694228 -12.364962 1.642362 -3.019401 -4.848381 5.855062 -25.158111 -0.228337 3.314621 55.045258 1.659713 10.209314 -1.566419 0.894500 -0.000000 -38.176800 7.760594 0.803072 2.273185 10.721379 4.318582 -60.538436 2.985282 -1.489691 21.157337 -0.661784 -4.529734 9.062691 -2.544300 0.000000 -60.239800
8.515895 16.241755 1.382836 2.475546 -86.201545 26.467175 -12.470398 1.400452 -3.049276 -4.972398 5.893496 -27.976503 -0.063545 3.536326 58.030977 1.815646 11.196547 -2.099486 0.917100 0.000000 -30.679700 7.619441 0.665017 2.377007 11.167546 4.710927 -60.628485 3.101169 -1.426861 21.066100 -0.658136 -4.449252 8.226972 -2.476300 0.000000 -59.761600
8.364223 16.273666 1.353841 1.295928 -86.230320 28.396815 -12.526627 1.149063 -3.045838 -5.210604 5.742866 -30.866354 0.088140 3.743494 60.779742 1.962297 12.085931 -2.963600 0.859700 -0.000000 -24.748000 7.507825 0.549624 2.486609 11.517393 5.011351 -60.739389 3.220504 -1.347159 20.805990 -0.653401 -4.367128 7.513902 -2.417500 -0.000000 -59.360100
8.215276 16.306441 1.324678 0.937324 -86.186529 29.572345 -12.536455 0.897147 -3.003704 -5.540287 5.402454 -33.824923 0.226042 3.936014 63.266562 2.094404 12.824747 -4.074559 0.722300 -0.000000 -20.265700 7.426552 0.459788 2.602404 11.778137 5.235493 -60.890019 3.341313 -1.251846 20.390662 -0.647923 -4.298844 6.955667 -2.376700 -0.000001 -59.071600
8.068697 16.339922 1.295666 1.316634 -86.086936 30.072212 -12.501238 0.653007 -2.921954 -5.944763 4.878175 -36.826557 0.348249 4.111462 65.458319 2.206628 13.368814 -5.343339 0.517000 -0.000000 -16.988600 7.376381 0.398431 2.719830 11.954640 5.390449 -61.087608 3.460818 -1.144341 19.851383 -0.641207 -4.246423 6.550532 -2.354200 -0.000000 -58.908900
7.924022 16.373868 1.267245 2.250576 -85.946275 30.077603 -12.426116 0.420433 -2.801537 -6.397683 4.184072 -39.846107 0.452982 4.266710 67.325077 2.293586 13.683720 -6.666471 0.270300 0.000000 -14.735100 7.352402 0.363467 2.837621 12.054161 5.496746 -61.332497 3.576526 -1.025738 19.210306 -0.635940 -4.223511 6.282915 -2.353000 -0.000000 -58.891700
7.781017 16.408029 1.239589 3.590839 -85.781711 29.723395 -12.314165 0.202751 -2.646924 -6.877920 3.340438 -42.844285 0.538290 4.397404 68.837684 2.350816 13.753097 -7.939355 0.017001 0.000000 -13.363800 7.350879 0.352945 2.951573 12.083632 5.568176 -61.617235 3.685814 -0.898994 18.502112 -0.633718 -4.229523 6.112054 -2.368800 0.000001 -59.001900
7.639418 16.441999 1.212821 5.198723 -85.614727 29.133435 -12.168822 0.001408 -2.466777 -7.365992 2.379369 -45.780932 0.602114 4.500044 69.977334 2.375126 13.577162 -9.073078 -0.208699 0.000000 -12.774800 7.366883 0.363298 3.058054 12.050615 5.623370 -61.931078 3.786020 -0.767375 17.765496 -0.636299 -4.258916 5.982416 -2.394000 -0.000000 -59.207300
7.498808 16.475167 1.187016 6.953506 -85.459199 28.424395 -11.994996 -0.183513 -2.263472 -7.839507 1.322766 -48.639593 0.643641 4.572158 70.738187 2.366328 13.176143 -10.002998 -0.380800 -0.000000 -12.850800 7.394205 0.388371 3.161006 11.962352 5.685377 -62.272077 3.875899 -0.631411 17.020939 -0.646786 -4.315907 5.852125 -2.426200 -0.000000 -59.492300
7.359067 16.506902 1.162005 8.812795 -85.336412 27.623852 -11.794462 -0.350662 -2.045235 -8.288978 0.203924 -51.395042 0.661226 4.612804 71.122902 2.326587 12.583535 -10.706647 -0.489100 0.000000 -13.460700 7.430061 0.424442 3.259263 11.826516 5.766980 -62.636512 3.954236 -0.495582 16.309172 -0.664090 -4.379369 5.666244 -2.452600 0.000000 -59.811100
7.219698 16.536120 1.137550 10.745867 -85.270581 26.755150 -11.569991 -0.499084 -1.820788 -8.709806 -0.934893 -54.038262 0.652505 4.624440 71.151763 2.259830 11.835422 -11.215676 -0.541300 0.000000 -14.343600 7.470957 0.465711 3.354960 11.654745 5.885574 -63.031207 4.021481 -0.365510 15.676173 -0.685040 -4.419432 5.372937 -2.457900 -0.000000 -60.097600
